PathFileType	4	(X/Y/Z)	C:/Users/opensim2020/Desktop/walking_exp_matlab/subject02_walking12_straight_04.trc	
DataRate	CameraRate	NumFrames	NumMarkers	Units	OrigDataRate	OrigDataStartFrame	OrigNumFrames	
100.00	100.00	6	42	mm	100.00	2039	125	
Frame#	Time	LFHD			RFHD			LBHD			RBHD			C7			T10			CLAV			STRN			RBAK			LSHO			LUPA			LELB			LFRM			LWRA			LWRB			LFIN			RSHO			RUPA			RELB			RFRM			RWRA			RWRB			RFIN			LASI			RASI			LPSI			RPSI			LTHI			LKNE			LTIB			LANK			LHEE			LTOE			RTHI			RKNE			RTIB			RANK			RHEE			RTOE			*39			*40			*41			
		X1	Y1	Z1	X2	Y2	Z2	X3	Y3	Z3	X4	Y4	Z4	X5	Y5	Z5	X6	Y6	Z6	X7	Y7	Z7	X8	Y8	Z8	X9	Y9	Z9	X10	Y10	Z10	X11	Y11	Z11	X12	Y12	Z12	X13	Y13	Z13	X14	Y14	Z14	X15	Y15	Z15	X16	Y16	Z16	X17	Y17	Z17	X18	Y18	Z18	X19	Y19	Z19	X20	Y20	Z20	X21	Y21	Z21	X22	Y22	Z22	X23	Y23	Z23	X24	Y24	Z24	X25	Y25	Z25	X26	Y26	Z26	X27	Y27	Z27	X28	Y28	Z28	X29	Y29	Z29	X30	Y30	Z30	X31	Y31	Z31	X32	Y32	Z32	X33	Y33	Z33	X34	Y34	Z34	X35	Y35	Z35	X36	Y36	Z36	X37	Y37	Z37	X38	Y38	Z38	X39	Y39	Z39	X40	Y40	Z40	X41	Y41	Z41	X42	Y42	Z42	

47	0.460	1449.33521	144.34969	1757.80322	1308.04443	155.93959	1732.62402	1472.37769	266.14349	1672.57019	1333.71240	290.52359	1645.75525	1397.39832	319.17590	1530.34192	1388.54395	362.33365	1253.25415	1419.42102	180.27676	1467.47803	1419.06128	120.83548	1297.28601	1332.79614	367.65509	1353.59180	1579.74011	266.83179	1512.99207	1674.42322	283.33984	1320.58264	1706.50635	270.05789	1180.92932	1719.00671	196.58510	1066.59180	1683.45679	84.70983	990.06854	1718.71155	122.83152	967.16089	1719.66821	71.50119	924.84155	1218.65857	231.55118	1494.81885	1135.02417	258.02109	1304.65430	1119.20911	247.39934	1157.79724	1105.15808	216.05220	1041.06848	1128.85303	165.84077	916.47253	1094.75024	211.53857	911.07904	1094.16394	171.50427	850.27423	1547.04541	150.86832	996.67902	1292.48035	117.36057	984.93109	1435.07935	344.54126	1039.68213	1320.32007	334.67545	1042.28564	1609.59436	173.03259	686.59888	1594.65137	154.46742	502.16208	1571.76917	280.69016	369.41235	1535.78296	379.59372	171.42780	1474.21899	405.33054	158.71800	1584.90173	281.36292	61.63204	1228.80518	183.20709	671.37378	1281.28662	189.42987	463.46878	1277.57031	239.06111	280.59433	1322.47937	271.93311	91.78271	1376.64014	314.21063	39.42565	1320.01306	122.29598	38.14228	1366.60474	259.42102	1810.22083	-3357.34619	2845.85718	1034.21777			 
48	0.470	1450.21411	130.34552	1757.94336	1309.13721	142.13699	1732.97937	1473.44348	252.34209	1672.94836	1334.57544	276.03540	1646.33118	1398.31726	305.69196	1530.98206	1388.47925	349.40823	1254.03760	1420.51062	167.01176	1467.82300	1419.61060	107.95739	1297.58081	1332.37061	354.10428	1354.58826	1581.01001	254.15067	1512.92493	1674.11426	272.52271	1319.99988	1704.52490	262.14957	1179.59094	1716.64355	194.68608	1061.95325	1681.23828	86.53996	979.67883	1716.05664	126.22414	958.74390	1716.44031	77.20412	913.23865	1219.66284	217.47247	1495.97241	1134.50806	240.02881	1305.91797	1118.58862	227.79129	1158.82751	1105.98499	193.61639	1043.08191	1130.99036	139.44597	920.07153	1095.91199	184.30617	912.96057	1096.47070	142.46767	853.60492	1545.06128	136.53467	998.13812	1291.38208	106.11008	984.78253	1436.47522	331.92706	1040.60071	1321.60767	322.64706	1042.81641	1610.73718	154.58963	688.78156	1595.23560	132.15468	503.37305	1573.80457	252.95441	364.04596	1537.87988	341.76929	161.09155	1476.65662	367.44232	146.94910	1586.64050	236.76003	57.69221	1229.22778	177.01389	670.89777	1281.59680	186.13098	463.11688	1277.55750	237.64244	280.74200	1322.66345	271.67490	91.96626	1376.58716	314.03128	39.93985	1320.09265	122.09035	37.90144	1367.90198	245.54510	1810.76221	-3360.31592	2845.22412	1034.05640			 
49	0.480	1451.62695	116.57242	1758.04749	1310.31189	128.26277	1733.14246	1474.57336	238.55954	1673.07043	1335.55322	262.25500	1646.60583	1399.23828	292.21533	1531.40942	1388.51819	336.49170	1254.55945	1421.49634	153.66145	1467.91882	1420.00122	94.97473	1297.58777	1333.05591	341.15149	1355.60400	1581.98828	241.00964	1512.40625	1673.73230	261.36768	1318.95422	1702.48474	254.21265	1178.13696	1714.22375	192.81850	1057.27710	1678.99670	88.76508	969.48212	1713.32324	129.72870	950.56934	1713.41638	83.63895	902.10956	1220.70337	204.20151	1496.79211	1134.82813	224.11475	1306.77441	1117.99158	208.03862	1159.69934	1106.44067	170.20938	1044.67664	1132.99231	113.21735	923.61609	1097.46704	157.42932	915.04071	1098.65674	113.28936	856.98114	1543.04382	121.88898	999.18970	1290.16150	94.86293	984.38605	1438.35889	319.42838	1041.45361	1323.18018	310.71680	1043.11072	1612.45691	137.01656	691.31409	1595.84546	110.84593	504.50128	1575.89465	225.09953	358.11609	1540.56787	303.12573	150.67468	1479.67505	328.46295	134.81230	1588.79016	191.48166	54.19429	1230.08386	170.96350	670.80615	1281.70374	182.44081	462.73434	1277.94141	235.53987	280.87839	1322.84058	271.26633	92.12813	1376.78833	313.89590	39.93085	1320.00256	121.93563	37.71020	1369.09998	231.57545	1810.92151	-3357.34131	2845.91455	1034.34680			 
50	0.490	1452.64917	102.57946	1757.65393	1311.50342	114.61563	1732.87061	1475.77148	224.77776	1672.92371	1336.70959	248.54585	1646.62024	1400.24512	278.68878	1531.55261	1388.70703	323.56992	1254.74585	1422.50525	140.40416	1467.68604	1420.28491	82.04987	1297.23511	1332.27893	327.64755	1356.08459	1583.07544	227.72035	1511.61963	1673.48608	250.43138	1317.75049	1700.46716	246.19742	1176.45947	1711.84277	191.07339	1052.66223	1676.63940	91.43725	959.32526	1710.77502	133.70865	942.70728	1710.46399	90.69763	891.40448	1221.78101	190.09789	1497.27661	1134.44238	206.81876	1307.44385	1117.38611	188.34528	1160.38342	1106.67603	146.51204	1046.17627	1134.86719	86.88477	927.12830	1099.03650	129.96320	917.21271	1101.21106	84.52297	860.65863	1541.15125	107.15783	999.72528	1288.96912	84.19930	983.26123	1440.49268	306.71201	1041.92871	1325.11829	298.90027	1043.18091	1613.96033	119.53950	693.14032	1596.31787	90.28024	505.30200	1578.18188	197.32622	351.99463	1544.02222	263.56982	140.25766	1483.16821	288.41190	122.32851	1591.48425	145.70139	51.51110	1230.68994	164.41116	670.24359	1282.37439	179.15932	462.27628	1278.23315	233.39565	280.89874	1323.01453	270.83109	92.34978	1377.03345	313.79111	40.20715	1319.90845	121.83154	37.60083	1370.39929	217.55194	1810.84485	-3360.55444	2845.26880	1034.24976			 
51	0.500	1454.19299	88.73338	1757.18945	1312.76233	100.75464	1732.52771	1476.94141	210.92036	1672.44482	1337.84143	234.84016	1646.41907	1401.13037	265.29352	1531.50220	1389.25952	310.69446	1254.69983	1423.48535	127.06165	1467.14600	1420.48145	68.97475	1296.63501	1332.40222	314.44684	1356.29822	1584.18823	214.27010	1510.52954	1673.21326	239.47467	1316.29553	1698.50232	238.08899	1174.67773	1709.55249	189.42583	1048.30237	1674.80713	94.79617	949.80548	1708.37012	137.96988	935.31531	1707.67639	98.26917	881.36182	1222.92651	176.79422	1497.62891	1134.39612	190.51660	1307.77600	1116.82849	168.63643	1160.93359	1107.34265	123.63687	1047.95081	1136.96680	60.78592	930.82690	1100.41223	103.27318	919.37750	1103.61768	55.78467	864.36877	1539.49670	92.49048	999.80658	1287.87927	73.28555	982.08453	1442.89917	293.92407	1042.14319	1327.27222	287.15222	1042.96887	1615.36670	102.26200	694.62848	1596.82251	70.49411	505.77640	1580.50439	169.64337	345.74255	1547.76270	223.19708	129.92372	1487.35510	247.43028	110.10627	1594.58911	99.35888	49.50741	1231.43896	157.48587	669.54114	1282.92236	175.49931	461.75491	1278.78186	231.17583	280.92499	1323.30615	270.49686	92.58145	1377.24377	313.98895	40.90629	1319.75647	121.56494	37.58706	1371.87915	203.63388	1810.60938	-3360.37671	2845.20117	1034.37378			 
52	0.510	1455.36914	74.60594	1756.26184	1314.13245	86.77211	1731.97986	1478.15649	197.11284	1671.76636	1339.01550	221.07921	1646.05420	1402.05383	251.70586	1531.04053	1390.02783	297.74222	1254.31641	1424.46326	113.67048	1466.32019	1420.67017	55.90046	1295.70996	1332.45593	300.96561	1356.19934	1585.34143	200.63274	1509.11768	1673.01465	228.33250	1314.52612	1696.01733	229.68773	1172.41223	1707.40051	187.80678	1044.10693	1672.73633	98.47828	940.44495	1705.98560	142.81308	928.35510	1705.03040	106.22182	872.00580	1223.83191	162.88466	1497.44373	1134.12500	173.31656	1308.08521	1116.38098	148.99792	1161.37720	1108.12122	100.37363	1049.64441	1139.08716	34.90197	934.80304	1101.87549	76.46941	921.65503	1106.09900	27.30589	868.22430	1538.34180	77.35542	999.57349	1286.91577	62.38216	980.47760	1445.51123	280.95132	1042.02271	1329.74146	275.58908	1042.61938	1616.59534	85.27102	695.66791	1597.16882	51.39524	505.70776	1582.85010	141.99356	339.39398	1552.29883	182.35291	120.13795	1492.34058	206.06151	98.50345	1598.22095	52.87437	48.31517	1232.24292	150.60727	668.98419	1283.54150	171.73895	461.27197	1279.37708	229.16257	281.01184	1323.67786	270.13913	92.88255	1377.44690	313.78235	41.03430	1319.72437	121.42332	37.46829	1373.35876	189.63409	1810.06372	-3360.43213	2845.10034	1034.32642			 
